<?xml version="1.0" encoding="UTF-8"?><svg id="Layer_2" xmlns="http://www.w3.org/2000/svg" viewBox="0 0 73.99512 73.99512"><defs><style>.cls-1{opacity:.2;}.cls-2{fill:#c2a793;}</style></defs><g id="Layer_1-2"><g><polygon class="cls-2" points="44.22754 31.18164 42.81348 29.76758 36.99756 35.5835 31.18164 29.76758 29.76758 31.18164 35.5835 36.99756 29.76758 42.81348 31.18164 44.22754 36.99756 38.41162 42.81348 44.22754 44.22754 42.81348 38.41162 36.99756 44.22754 31.18164"/><g class="cls-1"><path class="cls-2" d="M36.99707,73.99512C16.59668,73.99512,0,57.39844,0,36.99805S16.59668,0,36.99707,0s36.99805,16.59766,36.99805,36.99805-16.59766,36.99707-36.99805,36.99707ZM36.99707,1.5C17.42383,1.5,1.5,17.4248,1.5,36.99805s15.92383,35.49707,35.49707,35.49707,35.49805-15.92383,35.49805-35.49707S56.57031,1.5,36.99707,1.5Z"/></g></g></g></svg>