<svg xmlns="http://www.w3.org/2000/svg" width="172.667" height="51.19" viewBox="0 0 172.667 51.19"><g transform="translate(-1034 -657)"><path d="M11.911,4.821c-.626,1.666-.937,4.549-.937,8.614V24.1c0,.8.277,1.216.832,1.216a11.81,11.81,0,0,0,7.085-1.945c1.772-1.285,3.057-3.646,3.822-7.016h.277V35.9h-.277c-.764-3.368-2.049-5.7-3.822-7.016a11.374,11.374,0,0,0-7.085-2.014c-.59,0-.867.416-.832,1.216v9.03c0,6.806.59,10.174,1.285,11.287a8.838,8.838,0,0,0,1.909,1.806H0a8.878,8.878,0,0,0,1.909-1.806,8.944,8.944,0,0,0,.972-3.473A54.207,54.207,0,0,0,3.3,37.12V13.5c0-6.808-.59-10.176-1.39-11.253A8.119,8.119,0,0,0,0,.411H26.392L27.61,18.33H27.4c-2.049-5.937-3.994-10.071-5.869-12.467s-3.82-3.576-5.869-3.576a3.685,3.685,0,0,0-3.751,2.535" transform="translate(1034 657.284)" fill="#c2a793"/><path d="M25.691,47.3a23.065,23.065,0,0,1-5.245-9.552,44.173,44.173,0,0,1-1.6-12.153c0-9.03,1.98-16.811,6.843-21.812A11.9,11.9,0,0,1,34.547,0c.162,0,73.651,0,73.812.008a11.721,11.721,0,0,1,8.3,3.915,22.532,22.532,0,0,1,5.277,9.552,44.04,44.04,0,0,1,1.6,12.121c0,9.03-1.98,16.806-6.875,21.844a11.871,11.871,0,0,1-8.649,3.749c-.069,0-73.465,0-73.534,0A11.655,11.655,0,0,1,25.691,47.3m90.239-10.245A95.985,95.985,0,0,0,114.715,22.5,58.125,58.125,0,0,0,110.79,8.4c-1.8-4.219-3.837-6.339-6.152-6.356H31.282c-3.23,0-4.828,4.03-4.828,12.087a97.349,97.349,0,0,0,1.182,14.622,58.057,58.057,0,0,0,3.923,14.133c1.808,4.2,3.855,6.321,6.182,6.321h73.354c3.213-.022,4.8-4.085,4.836-12.155" transform="translate(1047.023 657)" fill="#c2a793"/><path d="M85.169,48.408a9,9,0,0,0,.972-3.475,54.207,54.207,0,0,0,.418-7.814V13.5c0-6.806-.592-10.176-1.39-11.252A8.1,8.1,0,0,0,83.258.41H97.706a15.27,15.27,0,0,1,12.5,6.216q4.949,6.2,4.931,18.267,0,12.086-4.966,18.721a15.292,15.292,0,0,1-12.814,6.6h-14.1a8.894,8.894,0,0,0,1.911-1.8m20.525-4.968c1.111-3.3,1.562-7.121,1.562-12.713q0-12.5-2.5-20.42c-1.666-5.313-4.028-7.953-7.05-7.953a2.759,2.759,0,0,0-2.778,1.84c-.451,1.216-.693,3.614-.693,7.19v27.3C94.2,45.107,96,48.3,99.616,48.3c2.917,0,5-1.632,6.077-4.861" transform="translate(1091.527 657.283)" fill="#c2a793"/></g></svg>